<?xml version="1.0" standalone="no"?>
<!DOCTYPE svg PUBLIC "-//W3C//DTD SVG 20010904//EN"
 "http://www.w3.org/TR/2001/REC-SVG-20010904/DTD/svg10.dtd">
<svg version="1.0" xmlns="http://www.w3.org/2000/svg"
 width="778.000000pt" height="778.000000pt" viewBox="0 0 778.000000 778.000000"
 preserveAspectRatio="xMidYMid meet">
<metadata>
Created by potrace 1.11, written by Peter Selinger 2001-2013
</metadata>
<g transform="translate(0.000000,778.000000) scale(0.100000,-0.100000)"
fill="#000000" stroke="none">
<path d="M5089 6453 c-2 -6 -57 -13 -122 -17 -66 -3 -122 -8 -125 -10 -4 -2
-29 -7 -57 -10 -63 -8 -248 -52 -297 -71 -21 -8 -38 -13 -38 -10 0 3 -25 -6
-55 -20 -30 -13 -55 -22 -55 -19 0 3 -10 -1 -22 -8 -13 -6 -28 -13 -34 -14
-58 -10 -480 -257 -529 -309 -5 -6 -32 -29 -60 -50 -50 -40 -220 -206 -285
-280 -20 -22 -59 -71 -88 -110 -29 -38 -56 -75 -61 -81 -4 -5 -14 -21 -21 -34
-7 -13 -17 -29 -21 -34 -17 -20 -55 -81 -73 -116 -122 -235 -159 -328 -222
-555 -11 -38 -45 -215 -55 -285 -7 -47 -12 -175 -12 -285 0 -250 18 -379 88
-659 8 -35 47 -150 60 -181 58 -133 93 -209 123 -265 44 -80 156 -254 191
-295 14 -17 42 -51 61 -75 65 -82 143 -162 275 -284 48 -44 206 -161 292 -216
90 -58 277 -153 363 -184 41 -16 82 -31 90 -36 42 -20 303 -86 384 -96 23 -3
47 -7 54 -9 27 -9 203 -20 322 -20 228 0 388 19 585 71 152 39 143 37 220 64
140 50 433 197 443 222 2 4 9 8 17 8 7 0 18 7 25 15 19 22 53 18 96 -12 50
-34 264 -145 264 -137 0 3 11 -1 25 -10 14 -9 25 -14 25 -10 0 4 6 2 13 -4 17
-14 224 -68 297 -77 94 -12 213 -22 260 -21 l45 1 3 393 2 392 -42 1 c-24 0
-54 2 -68 5 -14 2 -53 8 -88 14 -80 14 -202 59 -202 75 0 7 9 24 20 38 11 14
20 30 20 36 0 6 4 11 8 11 13 0 131 217 176 323 9 20 22 52 30 70 33 79 85
257 102 357 3 14 7 32 9 40 8 28 26 164 32 245 3 44 10 82 14 83 11 4 12 216
2 226 -4 4 -8 26 -9 49 -2 69 -19 212 -24 212 -1 0 -3 18 -4 40 -2 22 -11 64
-19 93 -9 30 -16 57 -15 60 5 23 -92 312 -104 312 -5 0 -7 4 -3 10 6 9 -77
183 -129 270 -14 25 -34 60 -43 78 -9 17 -20 32 -25 32 -4 0 -8 6 -8 14 0 8
-8 21 -19 28 -10 7 -19 16 -19 21 -4 19 -56 90 -109 145 -18 18 -31 35 -30 37
1 2 -37 45 -85 96 -49 51 -88 90 -88 87 0 -3 -24 18 -53 46 -30 28 -67 61 -83
74 -16 12 -42 34 -59 48 -16 13 -46 34 -65 46 -19 12 -37 24 -40 28 -8 9 -89
60 -95 60 -4 0 -13 7 -22 15 -8 8 -19 13 -24 10 -5 -4 -9 -2 -9 2 0 9 -112 69
-119 64 -2 -1 -7 1 -10 6 -3 4 -35 21 -71 37 -90 40 -103 45 -120 48 -8 2 -17
6 -20 9 -5 5 -112 41 -135 45 -5 1 -34 9 -64 18 -29 8 -57 13 -62 11 -4 -3
-10 -1 -13 4 -3 5 -29 12 -58 16 -29 4 -60 8 -68 10 -67 14 -124 21 -250 30
-203 16 -228 17 -231 8z m228 -808 c68 -6 106 -12 198 -30 97 -20 271 -86 374
-142 128 -70 221 -141 346 -263 103 -101 234 -266 235 -297 0 -6 3 -13 8 -15
19 -8 135 -261 146 -320 2 -13 9 -35 15 -51 11 -28 13 -36 31 -137 29 -163 31
-378 4 -503 -3 -12 -9 -42 -14 -67 -17 -84 -28 -119 -64 -216 -39 -105 -142
-304 -165 -319 -5 -2 -28 8 -53 24 -49 31 -253 141 -265 142 -8 1 -18 5 -100
38 -29 11 -53 18 -53 16 0 -3 -13 1 -30 10 -16 9 -30 13 -30 9 0 -4 -7 -1 -15
6 -8 7 -15 10 -15 6 0 -3 -12 -1 -26 5 -15 5 -42 12 -62 15 -19 3 -44 8 -56
11 -54 13 -115 24 -151 28 -22 3 -56 8 -76 10 -60 9 -127 14 -255 20 l-121 6
-2 -208 c-1 -114 -3 -296 -4 -403 l-2 -194 75 -2 c146 -4 249 -17 388 -50 117
-28 152 -40 152 -52 0 -9 -167 -68 -220 -77 -19 -3 -51 -10 -70 -15 -108 -28
-419 -31 -510 -5 -8 2 -33 7 -55 10 -45 7 -70 13 -70 15 0 1 -8 3 -17 5 -76
14 -240 81 -353 144 -174 96 -352 248 -466 398 -24 32 -50 64 -56 71 -7 7 -13
17 -13 22 0 5 -6 15 -12 22 -15 15 -47 70 -85 148 -16 30 -32 58 -38 62 -5 4
-7 8 -3 8 4 0 -3 25 -17 55 -13 31 -24 56 -23 58 1 1 -6 27 -15 57 -14 49 -23
84 -33 130 -2 8 -6 31 -9 50 -43 299 -13 550 98 820 62 152 205 373 289 448 9
9 15 19 12 24 -3 5 0 7 8 6 7 -2 12 3 11 10 -2 6 2 12 7 12 6 0 25 14 43 31
29 29 100 89 174 146 15 13 33 23 40 23 6 0 13 4 15 9 4 12 138 86 217 120
114 49 226 85 306 96 22 3 45 8 52 10 7 2 52 7 100 11 48 4 89 8 91 9 4 3 89
-1 189 -10z"/>
<path d="M2336 6248 c-17 -35 -30 -65 -31 -68 -1 -3 -27 -58 -58 -122 -32 -65
-57 -120 -58 -123 0 -2 -15 -34 -34 -70 -19 -36 -35 -67 -35 -70 0 -3 -24 -56
-54 -118 -29 -61 -72 -150 -94 -197 -22 -47 -62 -132 -90 -190 -27 -58 -66
-141 -87 -185 -20 -44 -53 -114 -73 -155 -20 -41 -37 -77 -37 -80 -2 -7 -67
-143 -135 -285 -32 -66 -72 -151 -90 -190 -18 -38 -56 -119 -85 -180 -29 -60
-69 -144 -88 -185 -19 -41 -57 -122 -85 -180 -85 -178 -116 -245 -117 -250 0
-3 -24 -52 -52 -110 -28 -58 -67 -139 -86 -180 -19 -42 -54 -116 -78 -165 -24
-50 -44 -92 -44 -95 0 -3 -15 -36 -34 -75 -58 -121 -137 -286 -186 -390 -26
-55 -69 -145 -95 -200 -26 -55 -59 -125 -73 -155 -14 -30 -49 -104 -77 -165
-29 -60 -56 -120 -61 -132 l-9 -23 429 0 428 0 36 73 c20 39 51 106 70 147 19
41 54 116 78 165 24 50 44 92 44 95 1 3 17 39 37 80 20 41 55 116 78 165 23
50 56 119 73 155 17 36 32 71 33 79 7 40 6 40 620 41 325 1 596 5 602 9 7 4
-6 45 -39 121 -73 169 -140 388 -164 532 -3 18 -8 45 -11 61 l-6 27 -304 0
c-341 0 -321 -6 -280 77 13 26 38 79 56 117 17 38 46 101 64 140 68 144 94
201 95 209 0 4 14 33 30 65 38 74 116 236 117 242 1 7 33 77 87 190 24 52 58
124 75 160 16 36 53 115 81 175 124 264 133 284 133 292 0 4 6 15 13 23 7 8
14 20 15 25 2 6 6 20 11 32 7 18 -13 68 -102 250 -168 344 -320 653 -322 653
-1 0 -15 -28 -31 -62z"/>
</g>
</svg>
