<svg id="Livello_1" data-name="Livello 1" xmlns="http://www.w3.org/2000/svg" xmlns:xlink="http://www.w3.org/1999/xlink" viewBox="0 0 1251.67 329.64"><defs><clipPath id="clip-path" transform="translate(0 0.52)"><path d="M1025.72,222.71a15.47,15.47,0,0,1,15.47,15.45h0v74.67a15.46,15.46,0,0,1-15.47,15.45h-15.46V238.16a15.46,15.46,0,0,1,15.46-15.45Z" fill="none"/></clipPath><clipPath id="clip-path-2" transform="translate(0 0.52)"><path d="M1087.09,68.38c7.81,0,14.15,6.91,14.15,15.45v137c0,8.54-6.34,15.46-14.15,15.45q-7.81,0-14.15,10.3V83.83C1072.94,75.29,1079.28,68.38,1087.09,68.38Z" fill="none"/></clipPath><clipPath id="clip-path-3" transform="translate(0 0.52)"><path d="M1087.5.47A15.46,15.46,0,0,1,1103,15.92h0V153a15.46,15.46,0,0,1-15.46,15.46h0q-8.55,0-15.47,15.45V15.93A15.47,15.47,0,0,1,1087.5.47Z" fill="none"/></clipPath><clipPath id="clip-path-4" transform="translate(0 0.52)"><ellipse cx="1086.41" cy="155.4" rx="37.61" ry="37.59" transform="translate(-0.31 2.21) rotate(-0.12)" fill="none"/></clipPath><clipPath id="clip-path-5" transform="translate(0 0.52)"><path d="M1098.21,158.49A16.48,16.48,0,0,0,1114.69,142h0a16.49,16.49,0,0,0-33,0h0A16.48,16.48,0,0,0,1098.21,158.49Z" fill="none"/></clipPath><clipPath id="clip-path-6" transform="translate(0 0.52)"><path d="M1189,94a29.37,29.37,0,1,0-29.37-29.36A29.36,29.36,0,0,0,1189,94Z" fill="none"/></clipPath><clipPath id="clip-path-7" transform="translate(0 0.52)"><rect x="1158.78" y="33.09" width="92.12" height="191.13" fill="none"/></clipPath><clipPath id="clip-path-8" transform="translate(0 0.52)"><rect x="1159.62" y="35.27" width="58.83" height="58.83" fill="none"/></clipPath><clipPath id="clip-path-9" transform="translate(0 0.52)"><path d="M1250.83,33.21V208.69a15.46,15.46,0,0,1-15.46,15.46h-30.92A15.46,15.46,0,0,1,1189,208.69h0V33.21Z" fill="none"/></clipPath><clipPath id="clip-path-11" transform="translate(0 0.52)"><rect x="1188.99" y="64.38" width="29.37" height="49.97" fill="none"/></clipPath><clipPath id="clip-path-13" transform="translate(0 0.52)"><path d="M1213.37,191.83v88.78a15.47,15.47,0,0,1-15.47,15.45h0q-8.54,0-15.46,15.45V178.65a15.45,15.45,0,0,0,15.29,13.18Z" fill="none"/></clipPath><clipPath id="clip-path-14" transform="translate(0 0.52)"><path d="M1197.88,222.76a15.43,15.43,0,0,1,15.45,15.43h0V312.8a15.43,15.43,0,0,1-15.44,15.43h0a15.43,15.43,0,0,1-15.44-15.43h0V238.19a15.43,15.43,0,0,1,15.44-15.43Z" fill="none"/></clipPath><clipPath id="clip-path-15" transform="translate(0 0.52)"><rect x="1181.6" y="221.92" width="32.61" height="107.25" fill="none"/></clipPath><clipPath id="clip-path-16" transform="translate(0 0.52)"><rect x="1182.43" y="222.76" width="30.93" height="105.56" fill="none"/></clipPath><clipPath id="clip-path-17" transform="translate(0 0.52)"><path d="M1200.84,184.1a11.85,11.85,0,1,0,0-23.7h0a11.85,11.85,0,1,0,0,23.7Z" fill="none"/></clipPath><clipPath id="clip-path-18" transform="translate(0 0.52)"><path d="M999.78,94.65H962.62V.6h15.17V0h22Zm0,.33v2.94H962.62V95Zm0,3.48v2.67H962.62V98.46Zm0,3.54v2.34H962.62V102Zm0,3.54v2H962.62v-2Zm0,3.38v1.91H962.62v-1.91Zm0,3.65v1.36H962.62v-1.36Zm-.21,3.43a11.72,11.72,0,0,1-.31,1.2H963.14a9.6,9.6,0,0,1-.31-1.2Zm-1.38,3.49a8.56,8.56,0,0,1-.66.92H964.86a10.12,10.12,0,0,1-.65-.92ZM994.28,123a8.73,8.73,0,0,1-3.79.87H971.91a8.77,8.77,0,0,1-3.8-.87Z" fill="none"/></clipPath><clipPath id="clip-path-19" transform="translate(0 0.52)"><path d="M962.62,0h37.16V34.58a9.31,9.31,0,0,1-9.29,9.31h0a9.29,9.29,0,0,0-9.29,9.3h0V64.43A18.59,18.59,0,0,1,962.62,83h0Z" fill="none"/></clipPath><clipPath id="clip-path-20" transform="translate(0 0.52)"><rect x="962.11" y="-0.58" width="38.18" height="84.15" fill="none"/></clipPath><clipPath id="clip-path-21" transform="translate(0 0.52)"><rect x="962.62" y="-0.08" width="37.16" height="83.14" fill="none"/></clipPath><clipPath id="clip-path-22" transform="translate(0 0.52)"><circle cx="976.8" cy="38.56" r="7.14" fill="none"/></clipPath><clipPath id="clip-path-23" transform="translate(0 0.52)"><path d="M963.84,31.42a2.63,2.63,0,0,0,2.63-2.63h0a2.63,2.63,0,1,0-5.26,0h0A2.63,2.63,0,0,0,963.84,31.42Z" fill="none"/></clipPath><clipPath id="clip-path-24" transform="translate(0 0.52)"><path d="M966.47,56.63a3.5,3.5,0,0,0,3.5-3.49h0a3.5,3.5,0,0,0-3.5-3.49h0a3.49,3.49,0,0,0,0,7Z" fill="none"/></clipPath></defs><rect y="0.52" width="1249" height="299.4" fill="#fff"/><g clip-path="url(#clip-path)"><g id="Group_5" data-name="Group 5"><path id="Path_9" data-name="Path 9" d="M1009.42,221.87H1042V329.12h-32.61Z" transform="translate(0 0.52)" fill="#c71f3c"/></g></g><g id="Group_3" data-name="Group 3"><g clip-path="url(#clip-path-2)"><g id="Group_3-2" data-name="Group 3-2"><path id="Path_5" data-name="Path 5" d="M1072.17,67.54H1102V247.4h-29.84Z" transform="translate(0 0.52)"/></g></g><g clip-path="url(#clip-path-3)"><g id="Group_4" data-name="Group 4"><path id="Path_7" data-name="Path 7" d="M1071.19-.37h32.61V184.7h-32.61Z" transform="translate(0 0.52)" fill="#f2f2f2"/></g></g><g clip-path="url(#clip-path-4)"><g id="Group_23" data-name="Group 23"><path id="Path_34" data-name="Path 34" d="M1048,117h76.89v76.87H1048Z" transform="translate(0 0.52)" fill="#f2f2f2"/></g></g><g clip-path="url(#clip-path-5)"><g id="Group_24" data-name="Group 24"><path id="Path_36" data-name="Path 36" d="M1080.88,124.69h34.65v34.64h-34.65Z" transform="translate(0 0.52)" fill="#dc2249"/></g></g></g><g clip-path="url(#clip-path-6)"><g id="Group_21" data-name="Group 21"><g clip-path="url(#clip-path-7)"><g id="Group_20" data-name="Group 20"><g clip-path="url(#clip-path-8)"><g id="Group_15" data-name="Group 15"><path id="Path_23" data-name="Path 23" d="M1158.78,34.43h60.42V94.84h-60.42Z" transform="translate(0 0.52)" fill="#dc2249"/></g></g><g clip-path="url(#clip-path-9)"><g id="Group_17" data-name="Group 17"><g clip-path="url(#clip-path-8)"><g id="Group_16" data-name="Group 16"><path id="Path_25" data-name="Path 25" d="M1188.15,32.37h63.52V225h-63.52Z" transform="translate(0 0.52)" fill="#f2f2f2"/></g></g></g></g><g clip-path="url(#clip-path-11)"><g id="Group_19" data-name="Group 19"><g clip-path="url(#clip-path-8)"><g id="Group_18" data-name="Group 18"><path id="Path_28" data-name="Path 28" d="M1188.15,63.54h31v51.65h-31Z" transform="translate(0 0.52)"/></g></g></g></g></g></g></g></g><g id="Group_4-2" data-name="Group 4-2"><g clip-path="url(#clip-path-13)"><g id="Group_10" data-name="Group 10"><path id="Path_16" data-name="Path 16" d="M1181.6,177.81h32.61V312.35H1181.6Z" transform="translate(0 0.52)"/></g></g><g clip-path="url(#clip-path-14)"><g id="Group_13" data-name="Group 13"><g clip-path="url(#clip-path-15)"><g id="Group_12" data-name="Group 12"><g clip-path="url(#clip-path-16)"><g id="Group_11" data-name="Group 11"><path id="Path_18" data-name="Path 18" d="M1181.6,221.92h32.57V329.07H1181.6Z" transform="translate(0 0.52)" fill="#c71f3c"/></g></g></g></g></g></g><g clip-path="url(#clip-path-17)"><g id="Group_26" data-name="Group 26"><path id="Path_40" data-name="Path 40" d="M1188.15,159.56h25.38v25.38h-25.38Z" transform="translate(0 0.52)"/></g></g></g><g id="Group_5-2" data-name="Group 5-2"><g clip-path="url(#clip-path-18)"><g id="Group_6" data-name="Group 6"><path id="Path_11" data-name="Path 11" d="M962.11-.52h38.18v125H962.11Z" transform="translate(0 0.52)" fill="#c91f3c"/></g></g><g clip-path="url(#clip-path-19)"><g id="Group_9" data-name="Group 9"><g clip-path="url(#clip-path-20)"><g id="Group_8" data-name="Group 8"><g clip-path="url(#clip-path-21)"><g id="Group_7" data-name="Group 7"><path id="Path_13" data-name="Path 13" d="M962.11-.51h38.18V83.54H962.11Z" transform="translate(0 0.52)"/></g></g></g></g></g></g><g clip-path="url(#clip-path-22)"><g id="Group_25" data-name="Group 25"><path id="Path_38" data-name="Path 38" d="M969.15,30.91h15.3V46.2h-15.3Z" transform="translate(0 0.52)" fill="#fff"/></g></g><g clip-path="url(#clip-path-23)"><g id="Group_27" data-name="Group 27"><path id="Path_42" data-name="Path 42" d="M960.7,25.65H967v6.28H960.7Z" transform="translate(0 0.52)" fill="#7a4764"/></g></g><g clip-path="url(#clip-path-24)"><g id="Group_28" data-name="Group 28"><path id="Path_44" data-name="Path 44" d="M962.47,49.14h8v8h-8Z" transform="translate(0 0.52)" fill="#f2f2f2"/></g></g></g></svg>