<svg xmlns="http://www.w3.org/2000/svg" xmlns:xlink="http://www.w3.org/1999/xlink" width="839.139" height="1558.608" viewBox="0 0 839.139 1558.608">
  <defs>
    <clipPath id="clip-path">
      <path id="Path_10" data-name="Path 10" d="M120.867-430.137A77.675,77.675,0,0,1,198.584-352.5V22.731a77.675,77.675,0,0,1-77.717,77.632H43.151V-352.5A77.675,77.675,0,0,1,120.867-430.137Z" transform="translate(-43.151 430.137)" fill="#c71f3c"/>
    </clipPath>
    <clipPath id="clip-path-2">
      <path id="Path_6" data-name="Path 6" d="M491.662-923.287c39.256-.021,71.094,34.739,71.114,77.639v688.394c-.02,42.9-31.859,77.66-71.114,77.639q-39.275,0-71.114,51.759V-845.648C420.567-888.548,452.406-923.309,491.662-923.287Z" transform="translate(-420.548 923.287)" fill="#d8df00"/>
    </clipPath>
    <clipPath id="clip-path-3">
      <path id="Path_8" data-name="Path 8" d="M498.264-1200a77.69,77.69,0,0,1,77.717,77.664v688.625a77.69,77.69,0,0,1-77.717,77.664q-42.922,0-77.717,77.664v-843.953A77.69,77.69,0,0,1,498.264-1200Z" transform="translate(-420.548 1200)" fill="#f2f2f2"/>
    </clipPath>
    <clipPath id="clip-path-4">
      <path id="Path_35" data-name="Path 35" d="M519.807-344.063c104.374,0,188.986-84.586,188.986-188.928S624.182-721.918,519.807-721.918,330.822-637.332,330.822-532.99,415.433-344.063,519.807-344.063Z" transform="translate(-330.822 721.918)" fill="#f2f2f2"/>
    </clipPath>
    <clipPath id="clip-path-5">
      <path id="Path_37" data-name="Path 37" d="M543.808-524.806a82.833,82.833,0,0,0,82.843-82.831,82.83,82.83,0,0,0-82.843-82.8,82.833,82.833,0,0,0-82.843,82.831,82.831,82.831,0,0,0,82.843,82.8Z" transform="translate(-460.964 690.441)" fill="#dc2249"/>
    </clipPath>
    <clipPath id="clip-path-6">
      <path id="Path_31" data-name="Path 31" d="M575.007-722.678a147.587,147.587,0,0,0,147.61-147.564,147.588,147.588,0,0,0-147.61-147.565A147.587,147.587,0,0,0,427.4-870.243,147.586,147.586,0,0,0,575.007-722.678Z" transform="translate(-427.397 1017.808)" fill="#c91f3c"/>
    </clipPath>
    <clipPath id="clip-path-7">
      <rect id="Rectangle_3" data-name="Rectangle 3" width="462.921" height="960.476" fill="#7a4865"/>
    </clipPath>
    <clipPath id="clip-path-8">
      <path id="Path_24" data-name="Path 24" d="M427.4-722.147H723.058v-295.661H427.4Z" transform="translate(-427.397 1017.808)" fill="none"/>
    </clipPath>
    <clipPath id="clip-path-9">
      <path id="Path_27" data-name="Path 27" d="M857.84-1026.2v881.821a77.69,77.69,0,0,1-77.69,77.69H624.771a77.69,77.69,0,0,1-77.69-77.69v-881.821Z" transform="translate(-547.081 1026.205)" fill="#f2f2f2"/>
    </clipPath>
    <clipPath id="clip-path-10">
      <path id="Path_26" data-name="Path 26" d="M427.4-722.147H723.058v-295.661H427.4Z" transform="translate(-427.397 1017.808)" fill="#f2f2f2"/>
    </clipPath>
    <clipPath id="clip-path-11">
      <path id="Path_30" data-name="Path 30" d="M547.081-899.21h147.61v251.119H547.081Z" transform="translate(-547.081 899.21)" fill="none"/>
    </clipPath>
    <clipPath id="clip-path-13">
      <path id="Path_17" data-name="Path 17" d="M828.036-670.349v446.13a77.69,77.69,0,0,1-77.717,77.664q-42.921,0-77.717,77.664V-736.567a77.735,77.735,0,0,0,76.872,66.218Z" transform="translate(-672.603 736.567)" fill="#3d2c42"/>
    </clipPath>
    <clipPath id="clip-path-14">
      <path id="Path_20" data-name="Path 20" d="M750.241-556.849a77.6,77.6,0,0,1,77.64,77.569v374.916A77.6,77.6,0,0,1,750.241-26.8,77.6,77.6,0,0,1,672.6-104.364V-479.28A77.6,77.6,0,0,1,750.241-556.849Z" transform="translate(-672.602 556.849)" fill="#c71f3c"/>
    </clipPath>
    <clipPath id="clip-path-15">
      <rect id="Rectangle_2" data-name="Rectangle 2" width="163.881" height="538.948" fill="#c71f3c"/>
    </clipPath>
    <clipPath id="clip-path-16">
      <path id="Path_19" data-name="Path 19" d="M672.6-26.349H828.036v-530.5H672.6Z" transform="translate(-672.603 556.849)" fill="#c71f3c"/>
    </clipPath>
    <clipPath id="clip-path-17">
      <path id="Path_41" data-name="Path 41" d="M758.869-691.85A59.555,59.555,0,0,0,818.424-751.4a59.554,59.554,0,0,0-59.554-59.555A59.555,59.555,0,0,0,699.315-751.4a59.555,59.555,0,0,0,59.554,59.554Z" transform="translate(-699.315 810.959)"/>
    </clipPath>
    <clipPath id="clip-path-18">
      <path id="Path_12" data-name="Path 12" d="M355.937-550.512H169.178v-472.631h76.26v-2.884h110.5Zm0,1.643v14.783H169.178V-548.87Zm0,17.52v13.414H169.178v-13.414Zm0,17.794v11.772H169.178v-11.772Zm0,17.794v9.855H169.178v-9.855Zm0,16.973v9.581H169.178v-9.581Zm0,18.342v6.844H169.178v-6.844ZM354.884-443.2a53.128,53.128,0,0,1-1.577,6.023h-181.5a53.119,53.119,0,0,1-1.578-6.023Zm-6.946,17.52a50.367,50.367,0,0,1-3.3,4.654H180.475a50.384,50.384,0,0,1-3.3-4.654Zm-19.622,17.794a43.644,43.644,0,0,1-19.068,4.38H215.868a43.644,43.644,0,0,1-19.068-4.38Z" transform="translate(-169.178 1026.027)" fill="#7a4865"/>
    </clipPath>
    <clipPath id="clip-path-19">
      <path id="Path_15" data-name="Path 15" d="M169.178-1026.2H355.937v173.792a46.725,46.725,0,0,1-46.69,46.76,46.725,46.725,0,0,0-46.69,46.76v56.45a93.449,93.449,0,0,1-93.379,93.52Z" transform="translate(-169.178 1026.204)"/>
    </clipPath>
    <clipPath id="clip-path-20">
      <rect id="Rectangle_1" data-name="Rectangle 1" width="191.848" height="422.879" fill="none"/>
    </clipPath>
    <clipPath id="clip-path-21">
      <path id="Path_14" data-name="Path 14" d="M169.178-608.922H355.937v-417.79H169.178Z" transform="translate(-169.178 1026.712)" fill="none"/>
    </clipPath>
    <clipPath id="clip-path-22">
      <path id="Path_39" data-name="Path 39" d="M282.451-811.809a35.876,35.876,0,0,0,35.876-35.876,35.876,35.876,0,0,0-35.876-35.876,35.876,35.876,0,0,0-35.876,35.876A35.876,35.876,0,0,0,282.451-811.809Z" transform="translate(-246.575 883.561)" fill="none"/>
    </clipPath>
    <clipPath id="clip-path-23">
      <path id="Path_43" data-name="Path 43" d="M200.9-892.716a13.231,13.231,0,0,0,13.231-13.231A13.231,13.231,0,0,0,200.9-919.178a13.231,13.231,0,0,0-13.231,13.231A13.231,13.231,0,0,0,200.9-892.716Z" transform="translate(-187.671 919.178)" fill="none"/>
    </clipPath>
    <clipPath id="clip-path-24">
      <path id="Path_45" data-name="Path 45" d="M217.556-725.161a17.556,17.556,0,0,0,17.556-17.556,17.556,17.556,0,0,0-17.556-17.556A17.556,17.556,0,0,0,200-742.718,17.556,17.556,0,0,0,217.556-725.161Z" transform="translate(-200 760.274)" fill="#f2f2f2"/>
    </clipPath>
  </defs>
  <g id="Group_2" data-name="Group 2" transform="translate(-4041.293 -4413.736)">
    <g id="Group_29" data-name="Group 29" transform="translate(3054.469 4503.736)">
      <g id="Group_5" data-name="Group 5" transform="translate(986.825 938.108)" clip-path="url(#clip-path)">
        <path id="Path_9" data-name="Path 9" d="M39.726-433.562H203.607V105.386H39.726Z" transform="translate(-43.95 429.338)" fill="#c71f3c"/>
      </g>
      <g id="Group_3" data-name="Group 3" transform="translate(1196.287 -90)">
        <g id="Group_3-2" data-name="Group 3" transform="translate(121.304 341.277)" clip-path="url(#clip-path-2)">
          <path id="Path_5" data-name="Path 5" d="M417.123-926.712H567.081V-22.834H417.123Z" transform="translate(-420.988 922.488)"/>
        </g>
        <g id="Group_4" data-name="Group 4" transform="translate(116.749)" clip-path="url(#clip-path-3)">
          <path id="Path_7" data-name="Path 7" d="M417.123-1203.424H581v930.065H417.123Z" transform="translate(-421.347 1199.201)" fill="#f2f2f2"/>
        </g>
        <g id="Group_23" data-name="Group 23" transform="translate(0 589.633)" clip-path="url(#clip-path-4)">
          <path id="Path_34" data-name="Path 34" d="M327.4-725.342H713.816v386.3H327.4Z" transform="translate(-331.621 721.119)" fill="#f2f2f2"/>
        </g>
        <g id="Group_24" data-name="Group 24" transform="translate(165.432 628.454)" clip-path="url(#clip-path-5)">
          <path id="Path_36" data-name="Path 36" d="M457.54-693.866H631.674v174.083H457.54Z" transform="translate(-461.763 689.642)" fill="#dc2249"/>
        </g>
      </g>
      <g id="Group_21" data-name="Group 21" transform="translate(1363.857 191.703)" clip-path="url(#clip-path-6)">
        <g id="Group_20" data-name="Group 20" transform="translate(-4.224 -10.982)" clip-path="url(#clip-path-7)">
          <g id="Group_15" data-name="Group 15" transform="translate(4.224 10.982)" clip-path="url(#clip-path-8)">
            <path id="Path_23" data-name="Path 23" d="M423.973-1021.233H727.64v303.577H423.973Z" transform="translate(-428.196 1017.009)" fill="#dc2249"/>
          </g>
          <g id="Group_17" data-name="Group 17" transform="translate(151.834 0.625)" clip-path="url(#clip-path-9)">
            <g id="Group_16" data-name="Group 16" transform="translate(-147.61 10.357)" clip-path="url(#clip-path-10)">
              <path id="Path_25" data-name="Path 25" d="M543.657-1029.629H862.863V-61.67H543.657Z" transform="translate(-400.27 1015.05)" fill="#f2f2f2"/>
            </g>
          </g>
          <g id="Group_19" data-name="Group 19" transform="translate(151.834 157.252)" clip-path="url(#clip-path-11)">
            <g id="Group_18" data-name="Group 18" transform="translate(-147.61 -146.27)" clip-path="url(#clip-path-8)">
              <path id="Path_28" data-name="Path 28" d="M543.657-902.635H699.714v259.567H543.657Z" transform="translate(-400.27 1044.681)"/>
            </g>
          </g>
        </g>
      </g>
      <g id="Group_4-2" data-name="Group 4" transform="translate(1670.53 475.712)">
        <g id="Group_10" data-name="Group 10" transform="translate(0 91.75)" clip-path="url(#clip-path-13)">
          <path id="Path_16" data-name="Path 16" d="M669.178-739.992H833.059V-63.867H669.178Z" transform="translate(-673.402 735.768)"/>
        </g>
        <g id="Group_13" data-name="Group 13" transform="translate(0 313.4)" clip-path="url(#clip-path-14)">
          <g id="Group_12" data-name="Group 12" transform="translate(-4.224 -4.224)" clip-path="url(#clip-path-15)">
            <g id="Group_11" data-name="Group 11" transform="translate(4.224 4.224)" clip-path="url(#clip-path-16)">
              <path id="Path_18" data-name="Path 18" d="M669.178-560.274H832.9v538.5H669.178Z" transform="translate(-673.402 556.05)" fill="#c71f3c"/>
            </g>
          </g>
        </g>
        <g id="Group_26" data-name="Group 26" transform="translate(32.945)" clip-path="url(#clip-path-17)">
          <path id="Path_40" data-name="Path 40" d="M695.89-814.383H823.447v127.557H695.89Z" transform="translate(-700.114 810.16)"/>
        </g>
      </g>
      <g id="Group_5-2" data-name="Group 5" transform="translate(993.58 -6.043)">
        <g id="Group_6" data-name="Group 6" transform="translate(7.092 0.132)" clip-path="url(#clip-path-18)">
          <path id="Path_11" data-name="Path 11" d="M165.753-1029.452H357.6v628H165.753Z" transform="translate(-168.298 1026.714)" fill="#c91f3c"/>
        </g>
        <g id="Group_9" data-name="Group 9" transform="translate(7.092)" clip-path="url(#clip-path-19)">
          <g id="Group_8" data-name="Group 8" transform="translate(-2.544 -2.921)" clip-path="url(#clip-path-20)">
            <g id="Group_7" data-name="Group 7" transform="translate(2.544 2.544)" clip-path="url(#clip-path-21)">
              <path id="Path_13" data-name="Path 13" d="M165.753-1029.629H357.6v422.37H165.753Z" transform="translate(-168.298 1027.462)"/>
            </g>
          </g>
        </g>
        <g id="Group_25" data-name="Group 25" transform="translate(42.492 157.892)" clip-path="url(#clip-path-22)">
          <path id="Path_38" data-name="Path 38" d="M243.151-886.986h76.841v76.841H243.151Z" transform="translate(-245.695 884.442)" fill="#fff"/>
        </g>
        <g id="Group_27" data-name="Group 27" transform="translate(0 131.43)" clip-path="url(#clip-path-23)">
          <path id="Path_42" data-name="Path 42" d="M184.247-922.6H215.8v31.551H184.247Z" transform="translate(-186.791 920.058)" fill="#7a4764"/>
        </g>
        <g id="Group_28" data-name="Group 28" transform="translate(8.912 249.491)" clip-path="url(#clip-path-24)">
          <path id="Path_44" data-name="Path 44" d="M196.575-763.7h40.2v40.2h-40.2Z" transform="translate(-199.12 761.154)" fill="#f2f2f2"/>
        </g>
      </g>
    </g>
  </g>
</svg>
