<svg id="Layer_1" data-name="Layer 1" xmlns="http://www.w3.org/2000/svg" viewBox="0 0 1433.73 1022.46"><rect width="1400" height="980" fill="#d8d8d8"/><rect width="1400" height="980" fill="none"/><rect width="1400" height="980" fill="none"/><rect width="1400" height="980" fill="none"/><rect width="1400" height="980" fill="none"/><rect width="1400" height="980" fill="none"/><rect width="1400" height="980" fill="none"/><rect width="1400" height="980" fill="none"/><path d="M31.6,1019c741.6-117.3,943.7-206.8,1400-557.8" fill="none" stroke="#3e3938" stroke-miterlimit="10" stroke-width="7"/><rect width="1400" height="980" fill="none"/><path d="M768.6,841.3a86.4,86.4,0,1,1,86.6-86.4,86.53,86.53,0,0,1-86.6,86.4Z" fill="#fff" fill-rule="evenodd"/><rect width="1400" height="980" fill="none"/><path d="M686,732.3c0,45.8,39.5,83,88.2,83,35.4,0,66-19.6,80-47.9a85.18,85.18,0,0,0,.9-12.4,86.63,86.63,0,0,0-169-26.6c0,1.3-.1,2.6-.1,3.9Z" fill="#fff" fill-rule="evenodd"/><rect width="1400" height="980" fill="none"/><path d="M841,707.5a85.32,85.32,0,0,1,.7,93.8c10.5-28.5-7.9-70-43.5-96,14.6-3.2,29.1-4.8,42.8,2.2Z" fill="#c82127" fill-rule="evenodd"/><rect width="1400" height="980" fill="none"/><path d="M717.9,684.9a85,85,0,0,1,50.7-16.6,83.31,83.31,0,0,1,27.1,4.6c4,5.5,3.5,19,2.4,32.4-22.2-23.2-54.3-32.8-80.2-20.4Z" fill="#c82127" fill-rule="evenodd"/><rect width="1400" height="980" fill="none"/><path d="M748.7,839A85,85,0,0,1,686,781.2c4-36.3,69.6-72.6,112.1-75.9-2.8,26.5-22.5,116.5-49.4,133.7Z" fill="#c71f3c" fill-rule="evenodd"/><rect width="1400" height="980" fill="none"/><path d="M692.5,763.6c12.3,28.4,40.7,48.9,74.6,51.5-5.6,11-11.8,19.7-18.4,24h0A86.62,86.62,0,0,1,686,781.3v-.1a44.54,44.54,0,0,1,6.5-17.6Z" fill="#c82127" fill-rule="evenodd"/><rect width="1400" height="980" fill="none"/><path d="M811.7,714c-3.6,5.5-12.5,6.1-20,1.2S781,702,784.6,696.5s12.5-6.1,20-1.2,10.7,13.2,7.1,18.7Z" fill="#a71f24" fill-rule="evenodd"/><rect width="1400" height="980" fill="none"/><path d="M632.5,328.8l-.7-3.9a1.73,1.73,0,0,1,.1-1l8.1-17.2a1.41,1.41,0,0,0,.1-.9l-3.5-19.9-.6-3.6a4.26,4.26,0,1,0-8.4,1.4l.3,1.6a1.05,1.05,0,0,1-1.5,1.1l-7.3-3.6a2.2,2.2,0,0,0-1.4-.1l-3.9,1.4a1.79,1.79,0,0,0-1.2,2.1l.4,2.1a.76.76,0,0,1-.5.9l-5.4,2.4a2.22,2.22,0,0,0-1.3,2.4l.4,2.5a.87.87,0,0,1-.4.9l-3.7,1.9a1.82,1.82,0,0,0-1,2.1l3.6,20.9a3.55,3.55,0,0,0,.4.9l2.5,3a1.08,1.08,0,0,1,.3.7l1.1,6.6Z" fill="#fadfc4" fill-rule="evenodd"/><rect width="1400" height="980" fill="none"/><path d="M639.9,304.5l-4.4-12.1a1.54,1.54,0,0,0-1.5-1l-9,.5a.53.53,0,0,0-.5.7l1.7,4.6a1.3,1.3,0,0,0,1.2.8l2.5-.3a1.06,1.06,0,0,1,1.2,1.2l-.5,4.4c0,.4-.4.6-.8.6h-.3a.86.86,0,0,1-.6-.7l.2-2.3a.56.56,0,0,0-.7-.6l-.8.1a.32.32,0,0,0-.3.3l-.3,2.6a1.33,1.33,0,0,1-.8,1.1l-3.9,1.4a.68.68,0,0,0-.4.6l-.2,1.5a2.07,2.07,0,0,1-1,1.4l-4.6,2a1.7,1.7,0,0,1-.7.1l-1.8-.2c-.1,0-.3,0-.3.1l-.7.8a1.46,1.46,0,0,1-.9.6l-3.4,1.2a3.76,3.76,0,0,1-3.2-2.2l-3.3-7.5-.6-3.7.6-1,4.9,11a2,2,0,0,0,2.6,1l1.1-.5a2,2,0,0,0,1-2.7l-5.3-11.1.4-.6-.4-3.4,7.6,14.9a1.83,1.83,0,0,0,2.4.9l3-1.3a1.23,1.23,0,0,0,.8-1.4h0a1.19,1.19,0,0,0-.5-.9l-1.2-1c-.1-.1-.2-.2-.2-.3l-5.9-14.8,1-.7-.3-3.2,7.1,17.4a2.09,2.09,0,0,0,.4.6,1.8,1.8,0,0,0,1.6.4l2.6-.8a1.08,1.08,0,0,0,.8-1l.2-1.5a1.27,1.27,0,0,0-.1-.6L621,287.7a.57.57,0,0,1,.4-.7l.9-.2a.71.71,0,0,1,.6.3l.8,2c.1.2.3.4.5.3l9.9-.4a2.91,2.91,0,0,1,3,2.3Z" fill="#f7c4a7" fill-rule="evenodd"/><rect width="1400" height="980" fill="none"/><polygon points="787.6 675.6 764.4 678.4 757.5 579 719.7 500 722.6 463.1 725.7 464.1 733.3 458.4 766.4 465.6 790.4 573.7 787.6 675.6" fill="#231914" fill-rule="evenodd"/><rect width="1400" height="980" fill="none"/><path d="M767.6,671.2l-2.1,10.2c-2.5,4.6-2.1,4-.8,9.1l26.3-5.1s-1-6.2-3.8-7.6c-2.8-.5-7.8-9.1-7.8-9.1Z" fill="#231914" fill-rule="evenodd"/><rect width="1400" height="980" fill="none"/><path d="M731.1,476.3Z" fill="#cccac9" fill-rule="evenodd"/><rect width="1400" height="980" fill="none"/><polygon points="608.1 339.7 635.7 334.8 634.4 327.6 606.8 332.5 608.1 339.7" fill="#e41e26" fill-rule="evenodd"/><rect width="1400" height="980" fill="none"/><path d="M533.2,524s-10.9-6.1-13.7-12.5c-6.7-2.4-16.1.1-20.2-5-.6-2.6-6.2-8.1-6.7-3.5l3.7,12.6,15.9,10.3,1.2,4.7,6.7,3.9c-.1,0,13.1-5.3,13.1-10.5Z" fill="#231914" fill-rule="evenodd"/><rect width="1400" height="980" fill="none"/><path d="M733.1,454.2s-105.5-13.6-110.2-12.1-106.2,66.6-106.2,66.6c6.1,15.2,4.6,9.5,16.3,18.5,20.6-8.8,65.8-25,99-49.8l87.7,22.7L735,478.8Z" fill="#231914" fill-rule="evenodd"/><rect width="1400" height="980" fill="none"/><path d="M745.5,465.7c-.9,1.1-20.2,11.8-26.4,9.7l-21.1-7c-7-2.3-13.1-7.8-13.1-7.8s26.7-7.7,27.8-7.6c1,.3,32.8,12.7,32.8,12.7Z" fill="#c71f3c" fill-rule="evenodd"/><rect width="1400" height="980" fill="none"/><path d="M769.4,331c1.9,2.8,32.4,12.1,32.6,12.2-.7-.2-13.1,30.1-14.5,33-10.8,23.1-16.1,46.8-12.7,72.5.4,3.2,2.9,23.9,3.6,27-12.2,6.2-24.5,7.5-36.7,1.4L685,460.6c4.3-16.9,8.2-34.6,8.9-52.1,1-24.1-9.7-46.1-17.9-68.3l38.6-13.3,51.2,2.4Z" fill="#c71f3c" fill-rule="evenodd"/><rect width="1400" height="980" fill="none"/><path d="M777,355.3l24.9-12.1c3.8,9.9,7.6,19.7,11.4,29.6l9.3,24c6.1,15.9,18.6,30.3,23.7,47.6l-16.8,12.3-26.8-41.4Z" fill="#c71f3c" fill-rule="evenodd"/><rect width="1400" height="980" fill="none"/><path d="M782.7,253.7c3-1.3,18.7-9.3,20.4-4.9s-4.2,23.8-5.9,26-12.7,5.1-13.2,3.9c-.5-1.4-1.3-25-1.3-25Z" fill="#fcc8a6" fill-rule="evenodd"/><rect width="1400" height="980" fill="none"/><path d="M788.8,253c1.2-.4,6.8-2.3,8-.2s-.2,7.2-.2,8.3-2.1,9.1-3.6,10.4-7.3,3.2-7.6,2.1,3.4-20.6,3.4-20.6Z" fill="#e1aa8b" fill-rule="evenodd"/><rect width="1400" height="980" fill="none"/><path d="M705.7,250.2c-3-1.3-18.7-9.3-20.4-4.9s4.2,23.8,5.9,26,12.7,5.1,13.2,3.8,1.3-24.9,1.3-24.9Z" fill="#fcc8a6" fill-rule="evenodd"/><rect width="1400" height="980" fill="none"/><path d="M699.6,249.6c-1.2-.4-6.8-2.3-8-.2s.2,7.2.2,8.3,2.1,9.1,3.6,10.4,7.3,3.2,7.6,2.1-3.4-20.6-3.4-20.6Z" fill="#e6ab8b" fill-rule="evenodd"/><rect width="1400" height="980" fill="none"/><path d="M717.7,334c-.2-.4-6.1-6.7-6-7s0-7.5,0-7.5L765,321l-1.1,11.5Z" fill="#a71f24" stroke="#c82127" stroke-miterlimit="10" stroke-width="0.2" fill-rule="evenodd"/><rect width="1400" height="980" fill="none"/><path d="M760.2,296.7c-1.1,7-3.9,27.3-1.7,29.1s14.5,6.8,14.5,6.8-27.9,19.4-33.4,20.1-33.8-22-33.8-22,14.3-5.5,16.5-8.8,4.4-30.8,4.4-30.8Z" fill="#fcc79f" fill-rule="evenodd"/><rect width="1400" height="980" fill="none"/><path d="M702.5,219.4c-.4,18.1.3,36.5-1.1,54.5-1.5,18.8,16.2,32.9,30.6,41.8,3.2,2,8.2,1.2,12.1,1.5,5.7.4,8.1-1.8,12.5-4.8q3.9-2.55,7.8-5.4a69.73,69.73,0,0,0,13.7-12.9c3.8-5,6.6-10.3,7.1-16.5.4-4.8,1.3-9.6,2-14.4l2.8-40.5Z" fill="#e8beaf" fill-rule="evenodd"/><rect width="1400" height="980" fill="none"/><path d="M702.5,219.4c-.4,18.1.3,36.5-1.1,54.5-1.5,18.8,16.2,32.9,30.6,41.8,3.2,2,8.2,1.2,12.1,1.5,5.7.4,8.1-1.8,12.5-4.8q3.9-2.55,7.8-5.4a69.73,69.73,0,0,0,13.7-12.9c3.8-5,6.6-10.3,7.1-16.5.4-4.8,1.3-9.6,2-14.4l2.8-40.5Z" fill="#eaac87" fill-rule="evenodd"/><rect width="1400" height="980" fill="none"/><path d="M703.3,214c-.4,18.6.3,37.6-1.1,56.1-1.5,19.4,16.2,33.8,30.6,43,3.2,2.1,8.2,1.3,12.1,1.6,5.7.4,8.1-1.9,12.5-4.9,2.6-1.8,5.3-3.6,7.8-5.6a71.85,71.85,0,0,0,13.7-13.3c3.8-5.1,6.6-10.6,7.1-17,.4-5,1.3-9.9,2-14.9l2.8-41.6Z" fill="#fcc5a7" fill-rule="evenodd"/><rect width="1400" height="980" fill="none"/><path d="M702.2,252.8v-.3h0v-1.9l.1-.8v-.4c.4-6.2,1-14.1,1.5-21.3v-.5h0v-2c.7-9.7,1.2-17.6,1.2-17.6-6.8.7-15.6.4-16.7,7s13,47.9,13.1,45.7c.3-.5.5-3.5.8-7.9Z" fill="#4e2918" fill-rule="evenodd"/><rect width="1400" height="980" fill="none"/><path d="M787,266l-2.2-29.7c3-2.7,5.9-6.1,7.2-10.1,2.9-9.1,1.4-14.1,1.4-14.6s3,7,2.1,15.1a41.79,41.79,0,0,1-4.4,14.6c-.6,1.3,4.5-5.7,4.8-6.4s-.4,2.3-2.3,9.2c-2,6.7-6.6,21.9-6.6,21.9Z" fill="#93372f" fill-rule="evenodd"/><rect width="1400" height="980" fill="none"/><path d="M787,266l-2.6-35.6c-29.6,10.8-48.1,15-77.5-3.5-6.1-3.3-2.8-1.7-3.1-2h0c-9-6.8-10-18.1-9.3-26.3.7-9.2,10.1-17.8,10.1-17.8s.7,7.3,11.4,11,38.6-1.8,51.4.4,21.8,14.6,21.8,14.6,9,0,12.7,9.9c3.8,10.4-10.2,37.2-14.9,49.3Z" fill="#4e2918" fill-rule="evenodd"/><rect width="1400" height="980" fill="none"/><path d="M719.6,338.6c1.5-.4,10.6-1.7,10.6-1.7l8.3,15.7-18.6-4.8Z" fill="#a71f24" fill-rule="evenodd"/><rect width="1400" height="980" fill="none"/><path d="M756.8,343.4c-1.7-1.5-10.3-5-10.3-5l-6.8,14.3,18.5-4.2Z" fill="#a71f24" fill-rule="evenodd"/><rect width="1400" height="980" fill="none"/><path d="M765,321l-18.5,17.4,15.2,21.2c.9,1.2,11.4-27.1,11.4-27.1Z" fill="#fff" fill-rule="evenodd"/><rect width="1400" height="980" fill="none"/><path d="M711.7,319.5l18.5,17.4L715,358.1c-.8,1.2-11.4-27.1-11.4-27.1Z" fill="#fff" fill-rule="evenodd"/><rect width="1400" height="980" fill="none"/><path d="M694.2,376.9c-16.3,11.1-32.4,22.4-48.8,33.3-28.8,19.1-38.3-72.7-39.7-72.7l31.6-5.6,3.4,52L676,340.3Z" fill="#c71f3c" fill-rule="evenodd"/><rect width="1400" height="980" fill="none"/><polygon points="743.1 345.6 744.2 353.7 746.4 456.5 730.4 473.9 715.9 453.6 732.3 353.4 743.1 345.6" fill="#352c38" fill-rule="evenodd"/><rect width="1400" height="980" fill="none"/><path d="M730.2,338.8c1.7,0,17.1-.3,17.3.9s1.7,7.9,1.1,8.4-2.9,5.4-4.4,5.6a91.11,91.11,0,0,1-11.8-.3c-1.1-.3-3.5-5.5-3.5-6.1s1.3-8.5,1.3-8.5Z" fill="#352c38" fill-rule="evenodd"/><rect width="1400" height="980" fill="none"/><path d="M715.9,453.6l16.4-100.3c-.5-.1-1.4-1.5-2.2-2.9-.6-1.1-1-2.2-1.3-2.8a1,1,0,0,1-.1-.4c0-.6,1.4-8.4,1.4-8.4h1.8c-.1.3-.2.6-.3,1-.7,2-1.3,4.5-1.1,5.8a12.31,12.31,0,0,0,2,4.4,3.89,3.89,0,0,0,1.6,1.6h0a4.33,4.33,0,0,0,.5.1c.5.1,1.1.2,1.9.4.5.1,1.1.2,1.7.3s1,.2,1.4.3a.37.37,0,0,1,.3.1h0c1.3.2,2.3.4,2.3.4s-1.9.3-3.9.7-3.9.9-4.1,1.3c-.5.8-16.4,95.3-15.4,98.1.2.5.7,1.5,1.4,2.9.4.8.9,1.7,1.4,2.6.8,1.4,1.6,2.9,2.5,4.5s1.6,2.9,2.4,4.3c1.6,2.8,2.9,5.1,3.5,6.1a5.2,5.2,0,0,1,.3.5l-.3-.4-3.5-4.9-2.5-3.5-5.2-7.3-2.4-3.3Z" fill="#2c2532" fill-rule="evenodd"/><rect width="1400" height="980" fill="none"/><path d="M608.8,337a21.55,21.55,0,0,1,2.9,9.3c1,10.4,12.2,49.6,20.1,57.8s12.6,1.2,22.9-7.5c8.8-7.4,34.6-18.5,33.8-30.9-.3-4.6,7.7,12.8,9.2,25.4s-2.3,46.1-3.5,52.8.1,10.2,5.2,9.2,3.6,8.9,10.2,14.8v4.4c-19.4-4.4-24.7-11.6-24.7-11.6,4.3-16.9,8.2-34.6,8.9-52.1a93.67,93.67,0,0,0-3.7-28.9c-14.9,10.2-29.7,20.6-44.7,30.5-28.8,19.1-38.3-72.7-39.7-72.7-.1.1,1.2-.2,3.1-.5Z" fill="#c71f3c" fill-rule="evenodd"/><rect width="1400" height="980" fill="none"/><path d="M829.6,456.7l-26.8-41.4-22.5-52.5c1.6,0,6.5,4.3,6.5,4.3,1.7,3.5,15,37.6,18.8,42.6l31.7,44.8Z" fill="#c82127" fill-rule="evenodd"/><rect width="1400" height="980" fill="none"/><path d="M767.1,439.5c.9-11,2.3-8.9,3.5-28.1,1.2-19.9,8.2-48.5,9.7-48.5s6.5,4.3,6.5,4.3c.3.7,1.2,2.6,2.3,5.3-.8,1.9-1.4,3.2-1.6,3.7-10.8,23.1-16.1,46.8-12.7,72.5.2,1.7.5,3.4.8,5.1-2.1,2.4-4,4.7-5.7,6.6l-9.6,3.4c-2.3-2.1-4.9-4.5-4.7-5.1.2-.8,10.6-8.3,11.5-19.2Z" fill="#c71f3c" fill-rule="evenodd"/><rect width="1400" height="980" fill="none"/><polygon points="711.3 248.4 713 252.2 730.7 245.6 728.7 242.4 711.3 248.4" fill="#4e2918" fill-rule="evenodd"/><rect width="1400" height="980" fill="none"/><path d="M720.7,269.5c2.4,0,4.4-2.9,4.4-6.4s-2-6.4-4.4-6.4-4.4,2.9-4.4,6.4,1.9,6.4,4.4,6.4Z" fill="#231914" fill-rule="evenodd"/><rect width="1400" height="980" fill="none"/><path d="M719.8,263.1c.5,0,.9-.9.9-1.9s-.4-1.9-.9-1.9-.9.9-.9,1.9.4,1.9.9,1.9Z" fill="#fff" fill-rule="evenodd"/><rect width="1400" height="980" fill="none"/><path d="M740.3,305.2c4.4,0,8-4.7,8-10.4s-3.6-10.4-8-10.4-8,4.7-8,10.4,3.6,10.4,8,10.4Z" fill="#ee6c71" fill-rule="evenodd"/><rect width="1400" height="980" fill="none"/><path d="M749.8,271.8a4.14,4.14,0,0,1,.5,1.9c0,3.3-4.5,6-9.9,6s-9.9-2.7-9.9-6a4.14,4.14,0,0,1,.5-1.9v.1c0,3.3,4.2,6,9.4,6s9.4-2.7,9.4-6.1Z" fill="#e7af8e" fill-rule="evenodd"/><rect width="1400" height="980" fill="none"/><polygon points="775.4 248.4 773.7 252.2 756 245.6 758 242.4 775.4 248.4" fill="#4e2918" fill-rule="evenodd"/><rect width="1400" height="980" fill="none"/><path d="M766.1,269.5c2.4,0,4.4-2.9,4.4-6.4s-2-6.4-4.4-6.4-4.4,2.9-4.4,6.4,2,6.4,4.4,6.4Z" fill="#231914" fill-rule="evenodd"/><rect width="1400" height="980" fill="none"/><path d="M767,263.1c.5,0,.9-.9.9-1.9s-.4-1.9-.9-1.9-.9.9-.9,1.9.4,1.9.9,1.9Z" fill="#fff" fill-rule="evenodd"/><rect width="1400" height="980" fill="none"/><path d="M848.1,449.8l-12.7,11,5.2,8,1.5,8.2a15.53,15.53,0,0,0,2.3,4.2l18,18.4a2.75,2.75,0,0,0,3.9.5l1.3-1.1c.1-.1.3,0,.4.1a3.68,3.68,0,0,0,5.4.7l1.1-1,1-.9a2.39,2.39,0,0,0,3.6-.4,2.69,2.69,0,0,0,.1-3.9l.9-.8c2.5-2.1,1.8-5.7-.2-7.8l-10.7-14.1-.1-.1a2.55,2.55,0,0,1,1.1-3.9h0l8.5-.4a2.5,2.5,0,0,0,1.4-.4l1.7-.8a3.16,3.16,0,0,0,1.8-3.3h0a3.23,3.23,0,0,0-3.6-2.6l-2,.3h-1l-6.1-.8a5.38,5.38,0,0,1-2.5-.9l-2.2-1.3a2.84,2.84,0,0,0-1.9-.9l-6.5-.3c-1.1,0-3.6.4-4.3-.5Z" fill="#fadfc4" fill-rule="evenodd"/><rect width="1400" height="980" fill="none"/><path d="M874.1,466.8h-6.9a1.71,1.71,0,0,0-1.2.6c-.7.9-8.7,7.5-16.5,2.2,0,0-1-.6-1.4-.2s.1,1.2.1,1.2,7.7,6.8,18.2-1.5c.4-.3.6-.5.9-.5l1.7-.2c0-.2.3-1.9,5.1-1.6Z" fill="#f7c4a7" fill-rule="evenodd"/><rect width="1400" height="980" fill="none"/><path d="M869.5,476.3l-4.9,4.4a25.29,25.29,0,0,1-4.2,3.1s-5.5,3.5-6.3,3.8-.5,2.1,1.1,1.1,6-3.7,6-3.7a30,30,0,0,0,4.9-3.7l4.4-4c1.2-.9-.1-1.8-1-1Z" fill="#f7c4a7" fill-rule="evenodd"/><rect width="1400" height="980" fill="none"/><path d="M844.9,442.7l4.2,4.9a1.09,1.09,0,0,1-.1,1.5l-13.5,11.7a1.09,1.09,0,0,1-1.5-.1l-4.2-4.9Z" fill="#fff" fill-rule="evenodd"/><rect width="1400" height="980" fill="none"/><polygon points="845.3 443.2 846.3 444.4 831.2 457.5 830.2 456.3 845.3 443.2" fill="#c71f3c" fill-rule="evenodd"/><rect width="1400" height="980" fill="none"/><path d="M870.7,483.6l8.6,10.2.2-.2c.4-.4.7-.6,1.1-1l-8.5-10.2a.92.92,0,1,0-1.4,1.2Z" fill="#f7c4a7" fill-rule="evenodd"/><rect width="1400" height="980" fill="none"/><path d="M864.5,487.5l9.8,11.7.5-.4a8.18,8.18,0,0,0,.9-.8L866,486.3a1,1,0,0,0-1.3-.2h0a1,1,0,0,0-.2,1.4Z" fill="#f7c4a7" fill-rule="evenodd"/><rect width="1400" height="980" fill="none"/><path d="M857.9,489.9l8.6,10.2.4-.3c.4-.3.8-.7,1.1-.7l-.2-.2-8.5-10.1a.93.93,0,0,0-1.3-.1c-.4.2-.4.8-.1,1.2Z" fill="#f7c4a7" fill-rule="evenodd"/><rect width="1400" height="980" fill="none"/><polygon points="607.4 335.6 635 330.7 634.6 328.9 607.1 333.8 607.4 335.6" fill="#c82127" fill-rule="evenodd"/><rect width="1400" height="980" fill="none"/><path d="M835.3,518.5l90.9-40a7,7,0,0,1,9.3,3.6l27.6,62.4a7,7,0,0,1-3.6,9.3l-90.9,40a7,7,0,0,1-9.3-3.6l-27.6-62.4a7.11,7.11,0,0,1,3.6-9.3Z" fill="#3a2514" fill-rule="evenodd"/><rect width="1400" height="980" fill="none"/><path d="M830.5,520.4l29.9-12.9L855,495.4a2.9,2.9,0,0,1,1.3-3.9l35.8-15.8a3,3,0,0,1,3.8,1.6l5.4,12.1L931.6,476c3.6-1.6,4.5,1.3,6,4.9l-.3.5-1.8.8,7.7,17.4L839.4,545.3l-7.7-17.4-1.2.5-.2-.4c-1.6-3.4-3.3-6.1.2-7.6Zm34.9-15.1,30.7-13.5-3.4-7.6a2.11,2.11,0,0,0-2.5-1.2L863,495a1.88,1.88,0,0,0-.8,2.6l3.4,7.6Z" fill="#4f361f" fill-rule="evenodd"/><rect width="1400" height="980" fill="none"/><polygon points="864.4 574.3 868.7 575.9 870.6 571.5 851.4 528.1 845.1 530.8 864.4 574.3" fill="#231914" fill-rule="evenodd"/><rect width="1400" height="980" fill="none"/><polygon points="941.6 540.3 946 541.8 947.8 537.5 928.6 494.1 922.3 496.8 941.6 540.3" fill="#231914" fill-rule="evenodd"/><rect width="1400" height="980" fill="none"/><path d="M855.4,554l6.7-2.9a1,1,0,0,1,1.4.6l4.2,9.5a1.07,1.07,0,0,1-.6,1.4l-6.7,2.9a1,1,0,0,1-1.4-.6l-4.2-9.5c-.3-.4.1-1.1.6-1.4Z" fill="#fff" fill-rule="evenodd"/><rect width="1400" height="980" fill="none"/><path d="M858.4,557.8l4.4-2a1.47,1.47,0,0,1,1.9.7l1.4,3.1a1.47,1.47,0,0,1-.7,1.9l-4.4,2a1.47,1.47,0,0,1-1.9-.7l-1.4-3.1a1.3,1.3,0,0,1,.7-1.9Z" fill="#d0d2d3" fill-rule="evenodd"/><rect width="1400" height="980" fill="none"/><path d="M932.3,520.1l6.7-2.9a1.07,1.07,0,0,1,1.4.6l4.2,9.5a1,1,0,0,1-.6,1.4l-6.7,2.9a1,1,0,0,1-1.4-.6l-4.2-9.5c-.3-.4.1-1.1.6-1.4Z" fill="#fff" fill-rule="evenodd"/><rect width="1400" height="980" fill="none"/><path d="M935.3,523.9l4.4-2a1.47,1.47,0,0,1,1.9.7l1.4,3.1a1.47,1.47,0,0,1-.7,1.9l-4.4,2a1.47,1.47,0,0,1-1.9-.7l-1.4-3.1a1.3,1.3,0,0,1,.7-1.9Z" fill="#d0d2d3" fill-rule="evenodd"/><rect width="1400" height="980" fill="none"/><path d="M871.5,466.9l7.3-.4a2.5,2.5,0,0,0,1.4-.4l1.7-.8a3.16,3.16,0,0,0,1.8-3.3h0a3.23,3.23,0,0,0-3.6-2.6l-2,.3h-1l-6.1-.8a5.38,5.38,0,0,1-2.5-.9l-2.2-1.3a2.84,2.84,0,0,0-1.9-.9l-6.5-.3a12.31,12.31,0,0,1-3.8-.2h0c-.8.8.6,7.5,1.5,8.8,3.3,4.4,5,4,6.3,4.9l7.3-1.4Z" fill="#fadfc4" fill-rule="evenodd"/><rect width="1400" height="980" fill="none"/><path d="M581.8,332.8l90.9-40a7,7,0,0,1,9.3,3.6l27.6,62.4a7,7,0,0,1-3.6,9.3l-90.9,40a7,7,0,0,1-9.3-3.6L578.2,342a7,7,0,0,1,3.6-9.2Z" fill="#3a2514" fill-rule="evenodd"/><rect width="1400" height="980" fill="none"/><path d="M577,334.6l29.9-12.9-5.4-12.1a2.87,2.87,0,0,1,1.3-3.9l35.8-15.8a3,3,0,0,1,3.8,1.6l5.3,12.1L678,290.2c3.6-1.6,4.4,1.4,6,4.9l-.3.5-1.7.8,7.7,17.4L586,359.7l-7.7-17.4-1.2.5-.2-.4c-1.7-3.6-3.4-6.2.1-7.8Zm34.9-15.1L642.6,306l-3.4-7.6a2,2,0,0,0-2.5-1.1l-27.2,12a1.88,1.88,0,0,0-.8,2.6l3.4,7.6Z" fill="#4f361f" fill-rule="evenodd"/><rect width="1400" height="980" fill="none"/><polygon points="610.9 388.5 615.2 390.2 617.1 385.7 597.9 342.3 591.6 345.1 610.9 388.5" fill="#231914" fill-rule="evenodd"/><rect width="1400" height="980" fill="none"/><polygon points="688.1 354.5 692.5 356 694.3 351.8 675.1 308.3 668.8 311.1 688.1 354.5" fill="#231914" fill-rule="evenodd"/><rect width="1400" height="980" fill="none"/><path d="M601.9,368.3l6.7-2.9a1,1,0,0,1,1.4.6l4.2,9.5a1,1,0,0,1-.6,1.4l-6.7,2.9a1.07,1.07,0,0,1-1.4-.5l-4.2-9.5a1.14,1.14,0,0,1,.6-1.5Z" fill="#fff" fill-rule="evenodd"/><rect width="1400" height="980" fill="none"/><path d="M604.9,372l4.4-2a1.47,1.47,0,0,1,1.9.7l1.4,3.1a1.47,1.47,0,0,1-.7,1.9l-4.4,2a1.47,1.47,0,0,1-1.9-.7l-1.4-3.1a1.3,1.3,0,0,1,.7-1.9Z" fill="#d0d2d3" fill-rule="evenodd"/><rect width="1400" height="980" fill="none"/><path d="M678.8,334.4l6.7-2.9a1.07,1.07,0,0,1,1.4.6l4.2,9.5a1,1,0,0,1-.6,1.4l-6.7,2.9a1.07,1.07,0,0,1-1.4-.6l-4.2-9.5a1.07,1.07,0,0,1,.6-1.4Z" fill="#fff" fill-rule="evenodd"/><rect width="1400" height="980" fill="none"/><path d="M681.8,338.1l4.4-2a1.47,1.47,0,0,1,1.9.7l1.4,3.1a1.47,1.47,0,0,1-.7,1.9l-4.4,2a1.47,1.47,0,0,1-1.9-.7l-1.4-3.1a1.3,1.3,0,0,1,.7-1.9Z" fill="#d0d2d3" fill-rule="evenodd"/><rect width="1400" height="980" fill="none"/><path d="M604,305.2c.7-.3,30-16,30-16l3.5,4.4.8,3.7-28.8,11.8-.9,2.5a5.29,5.29,0,0,0-2.4.5c-.6.7-2.2-6.9-2.2-6.9Z" fill="#fadfc4" stroke="#fadfc4" stroke-miterlimit="10" stroke-width="0.2" fill-rule="evenodd"/><rect width="1400" height="980" fill="none"/><path d="M638.3,300l-2.7-7.5a1.54,1.54,0,0,0-1.5-1l-9,.5a.53.53,0,0,0-.5.7l1.7,4.6a1.3,1.3,0,0,0,1.2.8l2.5-.3a1.06,1.06,0,0,1,1.2,1.2l-.5,4.4c0,.4-.4.6-.8.6h-.3a.86.86,0,0,1-.6-.7l.2-2.3a.56.56,0,0,0-.7-.6l-.8.1a.32.32,0,0,0-.3.3l-.3,2.6a1.33,1.33,0,0,1-.8,1.1l-3.9,1.4a.68.68,0,0,0-.4.6l-.2,1.5a2.07,2.07,0,0,1-1,1.4l-4.6,2a1.7,1.7,0,0,1-.7.1l-1.8-.2c-.1,0-.3,0-.3.1l-.7.8a1.46,1.46,0,0,1-.9.6l-3.4,1.2a3.76,3.76,0,0,1-3.2-2.2l-3.3-7.5-.6-3.7.6-1,4.9,11a2,2,0,0,0,2.6,1l1.1-.5a2,2,0,0,0,1-2.7l-5.3-11.1.4-.6-.4-3.4,7.6,14.9a1.83,1.83,0,0,0,2.4.9l3-1.3a1.23,1.23,0,0,0,.8-1.4h0a1.19,1.19,0,0,0-.5-.9l-1.2-1c-.1-.1-.2-.2-.2-.3l-5.9-14.8,1-.7-.3-3.2,7.1,17.4a2.09,2.09,0,0,0,.4.6,1.8,1.8,0,0,0,1.6.4l2.6-.8a1.08,1.08,0,0,0,.8-1l.2-1.5a1.27,1.27,0,0,0-.1-.6l-4.4-12.2a.57.57,0,0,1,.4-.7l.9-.2a.71.71,0,0,1,.6.3l.8,2c.1.2.3.4.5.3l9.9-.4a2.91,2.91,0,0,1,3,2.3l1.9,8.3c-.4.2-.6.2-.8.3Z" fill="#f7c4a7" fill-rule="evenodd"/><path d="M380.2,224.1a26.45,26.45,0,0,1,21.3,42.2H137.2a42.05,42.05,0,0,1-.5-6.2,36.06,36.06,0,0,1,36.1-36c1.1,0,2.2,0,3.2.1a26.87,26.87,0,0,1,24.2-25.6c-.1-1.2-.1-2.5-.1-3.7a55.06,55.06,0,0,1,103.4-26.2,27.88,27.88,0,0,1,5.8-.7A25.73,25.73,0,0,1,335,192.1,28.9,28.9,0,0,1,380,216a29.73,29.73,0,0,1-1.1,8,6.15,6.15,0,0,0,1.3.1Z" fill="#fff" fill-rule="evenodd"/><path d="M380.2,224.1a26.45,26.45,0,0,1,21.3,42.2H283.8V147.9a55.22,55.22,0,0,1,19.9,20.8,27.88,27.88,0,0,1,5.8-.7,25.73,25.73,0,0,1,25.7,24.1,28.9,28.9,0,0,1,45,23.9,29.73,29.73,0,0,1-1.1,8,3.75,3.75,0,0,0,1.1.1Z" fill="#c71f3c" fill-rule="evenodd"/><path d="M1203,340.1a40,40,0,0,1,40,39.9,39.33,39.33,0,0,1-7.9,23.8H836.6a56.45,56.45,0,0,1-.8-9.3,54.48,54.48,0,0,1,54.5-54.4c1.6,0,3.3.1,4.9.2a40.54,40.54,0,0,1,36.5-38.7c-.1-1.9-.2-3.7-.2-5.6a83.07,83.07,0,0,1,156-39.5,36.54,36.54,0,0,1,8.8-1,38.77,38.77,0,0,1,38.7,36.4,43.05,43.05,0,0,1,24.3-7.4,43.55,43.55,0,0,1,41.9,55.6Z" fill="#fff" fill-rule="evenodd"/><path d="M1203,340.1a40,40,0,0,1,40,39.9,39.33,39.33,0,0,1-7.9,23.8H1057.6V225.1a82.27,82.27,0,0,1,30,31.4,36.54,36.54,0,0,1,8.8-1,38.77,38.77,0,0,1,38.7,36.4,43.05,43.05,0,0,1,24.3-7.4,43.55,43.55,0,0,1,41.9,55.6Z" fill="#c71f3c" fill-rule="evenodd"/><path d="M483,662.9a19.76,19.76,0,0,1,19.8,19.7,20.11,20.11,0,0,1-3.9,11.8H301.7a23.16,23.16,0,0,1-.4-4.6,27,27,0,0,1,27-26.9,19.27,19.27,0,0,1,2.4.1,20,20,0,0,1,18.1-19.1,26.2,26.2,0,0,1-.1-2.8,41.12,41.12,0,0,1,77.2-19.5,21.18,21.18,0,0,1,4.4-.5,19.09,19.09,0,0,1,19.1,18A21.65,21.65,0,0,1,483,657a23.49,23.49,0,0,1-.8,6,2.2,2.2,0,0,1,.8-.1Z" fill="#fff" fill-rule="evenodd"/><path d="M483,662.9a19.76,19.76,0,0,1,19.8,19.7,20.11,20.11,0,0,1-3.9,11.8H411V606a41.81,41.81,0,0,1,14.9,15.5,21.18,21.18,0,0,1,4.4-.5,19.09,19.09,0,0,1,19.1,18A21.65,21.65,0,0,1,483,656.9a23.49,23.49,0,0,1-.8,6Z" fill="#c71f3c" fill-rule="evenodd"/><path d="M1356.1,791.6a19.76,19.76,0,0,1,19.8,19.7,19.44,19.44,0,0,1-3.9,11.8H1174.8a23.16,23.16,0,0,1-.4-4.6,26.93,26.93,0,0,1,27-26.9,19.27,19.27,0,0,1,2.4.1,20,20,0,0,1,18.1-19.1,26.2,26.2,0,0,1-.1-2.8,41.12,41.12,0,0,1,77.2-19.5,21.18,21.18,0,0,1,4.4-.5,19.26,19.26,0,0,1,19.2,18,21.65,21.65,0,0,1,33.6,17.9,19.81,19.81,0,0,1-.9,6,2.49,2.49,0,0,1,.8-.1Z" fill="#fff" fill-rule="evenodd"/><path d="M1356.1,791.6a19.76,19.76,0,0,1,19.8,19.7,19.44,19.44,0,0,1-3.9,11.8h-87.8V734.7a41.81,41.81,0,0,1,14.9,15.5,21.18,21.18,0,0,1,4.4-.5,19.26,19.26,0,0,1,19.2,18,21.65,21.65,0,0,1,33.6,17.9,19.81,19.81,0,0,1-.9,6Z" fill="#c71f3c" fill-rule="evenodd"/><path d="M752.5,179.8a1,1,0,0,1,1.1,1.7c-1.6,1-2.6,3.1-2.9,5.6a17.36,17.36,0,0,0,1.4,8.8,1.11,1.11,0,0,1-.5,1.4,1.15,1.15,0,0,1-1.4-.5,19.25,19.25,0,0,1-1.5-9.9c.3-3.1,1.5-5.7,3.8-7.1Z" fill="#0c0b08" fill-rule="evenodd"/><path d="M746,200a1.07,1.07,0,0,1-1.7-1.3,11.12,11.12,0,0,1,2.7-2.6,5.75,5.75,0,0,1,4.2-.8,1.06,1.06,0,0,1-.3,2.1,4,4,0,0,0-2.7.5A10.82,10.82,0,0,0,746,200Z" fill="#0c0b08" fill-rule="evenodd"/><path d="M751.3,202.6a1,1,0,0,1-.7,1.3,1.05,1.05,0,0,1-1.3-.7,11.48,11.48,0,0,1-.6-3.7,5.32,5.32,0,0,1,1.7-3.9,1.06,1.06,0,0,1,1.5,1.5,3.77,3.77,0,0,0-1.1,2.5,8.56,8.56,0,0,0,.5,3Z" fill="#0c0b08" fill-rule="evenodd"/><path d="M738.2,129c8.9,5.9,23.3,38.6,2.2,37.9-18.3-.6.8-25.9-2.2-37.9Z" fill="#c71f3c" fill-rule="evenodd"/><path d="M730.4,185.5c-.1-.1-.2-.1-.3-.2s-.3-.2-.5-.3-.2-.1-.3-.2-.3-.2-.5-.3a1.38,1.38,0,0,0-.4-.3c-.1-.1-.3-.2-.4-.3a1.38,1.38,0,0,0-.4-.3l-.3-.3a1.38,1.38,0,0,0-.4-.3l-.3-.3-.4-.4-.3-.3-.4-.4c-.1-.1-.1-.2-.2-.3s-.3-.3-.4-.5-.1-.2-.2-.3a2.19,2.19,0,0,0-.3-.5c-.1-.1-.1-.2-.2-.3l-.3-.6c0-.1-.1-.2-.1-.3l-.3-.6c0-.1-.1-.2-.1-.3s-.2-.5-.3-.7,0-.2-.1-.2a1.88,1.88,0,0,1-.2-.8c0-.1,0-.1-.1-.2-.1-.3-.1-.5-.2-.8V175c-.1-.3-.1-.6-.2-.9v-.2c0-.3-.1-.6-.1-.9v-.2c0-.3-.1-.7-.1-1v-2.7a4.87,4.87,0,0,1,.1-1.2v-.5h0v-1.2a.6.6,0,0,1,.1-.4v-.1a.6.6,0,0,1,.1-.4v-.1h0a.6.6,0,0,1,.1-.4h0c0-.2.1-.3.1-.5h0c0-.2.1-.3.1-.5,3.4-15.2,13.6-15.6,24.1-10.9.1,0,.2.1.3.1h0c.1,0,.1.1.2.1h0c.1,0,.2.1.3.1h0l.1.1h0l.1.1h0c.1,0,.2.1.3.1h.1c.1,0,.1.1.2.1h0a.35.35,0,0,1,.2.1h0c.1,0,.2.1.3.1h0c.1,0,.1.1.2.1h0a.35.35,0,0,1,.2.1h.1l.1.1h.2c.1,0,.1.1.2.1h.1l.1.1h.1c.1,0,.1.1.2.1h.1c.1,0,.1.1.2.1l.1.1c.1,0,.1.1.2.1h.1l.1.1.1.1.1.1h0l.1.1.1.1.1.1h0l.1.1.1.1h0l.1.1h0l.1.1h0l.1.1h0l.2.2h0l.1.1h0l.2.2h0l.1.1c.1.1.3.2.4.3l.1.1a1.38,1.38,0,0,0,.4.3l.1.1a1.38,1.38,0,0,0,.4.3v.1c.1.1.3.2.4.4h.1l.4.4.1.1.4.4.1.1c.1.1.2.3.4.4v.1c.1.1.2.3.4.4h0l.4.4h0c.1.1.2.3.4.4h0c.1.1.2.3.4.4h0c.1.1.2.3.4.4v.1a1.38,1.38,0,0,1,.3.4l.1.1c.1.1.2.3.3.4h0c.1.1.2.3.3.4h0l.1.1.1.2.1.1h0l.1.1.1.1c4.3,4.9,8.1,9.3,12.9,9.9-9,13-30.2,18.4-42.1,12.1Z" fill="#c71f3c" fill-rule="evenodd"/><path d="M722,170.6a33.16,33.16,0,0,1,.8-7.3c3.4-15.2,13.6-15.6,24.1-10.9a27.77,27.77,0,0,1,4.7,2.8c1,16.6-20.1,23.7-29.6,15.4Z" fill="#c71f3c" fill-rule="evenodd"/><path d="M725.2,160.5l-10.1,2.9,8.4,4.5c2.7.1,3.7-5.5,1.7-7.4Z" fill="#ea6548" fill-rule="evenodd"/><path d="M732.3,158.3c.8.2,1.1,1.7.8,3.4s-1.3,2.9-2.1,2.7-1.2-1.7-.8-3.4,1.3-2.8,2.1-2.7Z" fill="#0c0b08" fill-rule="evenodd"/><path d="M757.2,182.2a1.06,1.06,0,1,1,1.4,1.6c-1.5,1.3-2.1,3.5-2,6a17.14,17.14,0,0,0,2.8,8.4,1.12,1.12,0,0,1-.3,1.5,1,1,0,0,1-1.4-.3,19.41,19.41,0,0,1-3.1-9.5c-.2-3.2.7-6,2.6-7.7Z" fill="#0c0b08" fill-rule="evenodd"/><path d="M754.1,203.2a1,1,0,1,1-1.8-1,12.88,12.88,0,0,1,2.2-3,5.77,5.77,0,0,1,4-1.5,1.05,1.05,0,1,1-.1,2.1,3.8,3.8,0,0,0-2.6,1,9.23,9.23,0,0,0-1.7,2.4Z" fill="#0c0b08" fill-rule="evenodd"/><path d="M759.7,204.8a1.05,1.05,0,0,1-1.9.9,14.49,14.49,0,0,1-1.2-3.5,5.86,5.86,0,0,1,1-4.1,1.08,1.08,0,0,1,1.8,1.2,3.82,3.82,0,0,0-.7,2.6,7.71,7.71,0,0,0,1,2.9Z" fill="#0c0b08" fill-rule="evenodd"/><path d="M789.9,163.7c-7.5-7.6-42.3-15.7-37.8,4.8,3.9,17.8,25.4-5.5,37.8-4.8Z" fill="#d43827" fill-rule="evenodd"/><path d="M785.8,160.7c-11-5.9-34.3-9.6-34.1,4.5,3.6,16,21.5-1.5,34.1-4.5Z" fill="#c71f3c" fill-rule="evenodd"/><path d="M731.9,160c.4.1.5.8.4,1.6s-.6,1.4-1,1.3-.5-.8-.4-1.6.6-1.4,1-1.3Z" fill="#fff" fill-rule="evenodd"/></svg>