<?xml version="1.0" standalone="no"?>
<!DOCTYPE svg PUBLIC "-//W3C//DTD SVG 20010904//EN"
 "http://www.w3.org/TR/2001/REC-SVG-20010904/DTD/svg10.dtd">
<svg version="1.0" xmlns="http://www.w3.org/2000/svg"
 width="4167.000000pt" height="4167.000000pt" viewBox="0 0 4167.000000 4167.000000"
 preserveAspectRatio="xMidYMid meet">
<metadata>
Created by potrace 1.11, written by Peter Selinger 2001-2013
</metadata>
<g transform="translate(0.000000,4167.000000) scale(0.100000,-0.100000)"
fill="#000000" stroke="none">
<path d="M10950 39183 c-36 -20 -190 -106 -342 -191 l-277 -155 31 -44 c71
-105 194 -202 317 -254 145 -60 111 -59 1373 -59 651 0 1177 4 1209 9 80 13
146 48 204 106 182 181 131 477 -101 591 l-59 29 -1145 2 -1145 2 -65 -36z"/>
<path d="M15761 39200 c-148 -54 -240 -187 -241 -347 -1 -188 128 -334 320
-364 101 -16 251 -6 323 21 79 30 158 104 199 188 30 60 33 75 33 152 -1 153
-70 267 -203 332 -65 33 -69 33 -222 36 -134 2 -162 -1 -209 -18z"/>
<path d="M18305 39205 c-151 -33 -261 -102 -358 -225 -39 -49 -119 -183 -213
-357 -84 -153 -488 -897 -899 -1653 -874 -1607 -2141 -3935 -2785 -5115 -2930
-5371 -5463 -10021 -5512 -10120 -48 -95 -102 -243 -124 -340 -28 -120 -25
-328 5 -414 56 -160 160 -254 337 -307 54 -16 159 -18 1364 -25 1189 -7 1420
-11 1420 -26 0 -2 -23 -84 -50 -181 -58 -200 -23 -100 -1025 -2992 -1879
-5423 -2182 -6298 -2562 -7400 -454 -1319 -896 -2607 -1014 -2960 -108 -323
-114 -362 -113 -696 l0 -271 27 -56 c35 -70 140 -171 197 -188 75 -23 160 20
300 149 55 51 89 93 126 158 50 89 2278 3610 7187 11359 1037 1637 2498 3939
3500 5515 341 536 642 1003 669 1037 54 68 148 145 218 176 64 29 280 36 1221
36 l776 1 78 -167 c88 -188 1383 -2562 2273 -4168 1374 -2478 2128 -3751 2928
-4945 716 -1070 1431 -2000 2153 -2805 600 -668 1289 -1351 1836 -1820 1075
-923 2165 -1572 3274 -1949 516 -176 980 -274 2011 -426 190 -28 446 -67 570
-87 317 -50 421 -41 535 45 36 27 60 56 85 106 34 68 35 71 35 190 0 136 -13
175 -82 255 -49 58 -185 122 -333 156 -856 200 -1548 529 -2290 1088 -746 563
-1458 1252 -2161 2092 -1008 1206 -2162 2938 -3386 5085 -736 1290 -1361 2466
-3187 5989 -150 289 -348 670 -440 847 -91 177 -166 325 -166 331 0 5 75 33
168 62 92 29 258 93 370 142 111 49 316 137 455 195 500 210 629 265 798 340
579 256 916 435 1329 709 1386 916 2396 2212 2891 3705 216 654 321 1269 336
1960 13 621 -52 1191 -203 1782 -413 1623 -1392 3030 -2889 4157 -1355 1020
-2984 1643 -4840 1851 -684 76 -1435 113 -2825 140 -669 13 -1241 28 -1520 40
-282 13 -422 11 -495 -5z m3690 -2625 c1476 -97 2762 -622 3800 -1551 919
-823 1592 -1953 1899 -3190 120 -482 172 -873 183 -1364 22 -1033 -184 -1971
-596 -2710 -533 -956 -1444 -1673 -2641 -2080 -561 -190 -1148 -298 -1885
-346 -247 -16 -6638 -25 -6739 -9 -151 23 -196 66 -196 185 0 96 9 128 286
1090 135 468 270 936 301 1040 30 105 178 615 328 1135 302 1043 354 1223 575
1990 83 289 277 957 430 1485 464 1600 679 2353 905 3174 138 502 185 605 349
758 83 77 188 138 300 172 66 20 843 125 1266 170 164 18 498 46 650 54 137 8
650 6 785 -3z m-5080 -1414 c-59 -259 -168 -683 -609 -2356 -1281 -4866 -1919
-7290 -1970 -7490 -68 -264 -86 -372 -86 -518 0 -260 72 -413 234 -492 126
-62 65 -60 1777 -60 857 0 1559 -2 1559 -5 0 -2 -257 -411 -572 -907 -1371
-2163 -4065 -6416 -6193 -9775 -2152 -3397 -2301 -3631 -2319 -3619 -11 7 -24
20 -30 28 -11 18 -150 -386 2081 6058 789 2280 1486 4295 1549 4478 162 472
184 572 183 804 0 156 -18 236 -69 322 -42 70 -94 115 -181 156 -142 66 -82
63 -1394 69 l-1190 6 -45 24 c-25 13 -46 25 -48 26 -1 1 417 771 929 1711
1171 2147 3634 6669 4214 7734 1069 1966 2078 3817 2091 3837 13 21 15 21 54
6 32 -13 39 -20 35 -37z"/>
<path d="M5605 35054 c-92 -98 -243 -263 -337 -368 l-170 -191 923 -3 c1026
-2 981 -5 1085 64 61 41 95 82 132 162 22 48 27 71 27 142 0 75 -4 93 -32 152
-39 84 -97 141 -181 181 l-67 32 -606 3 -607 3 -167 -177z"/>
<path d="M10500 35214 c-106 -28 -193 -105 -243 -214 -31 -67 -30 -216 1 -284
47 -104 134 -179 243 -210 50 -15 154 -16 955 -14 l899 3 65 31 c232 110 288
395 114 583 -36 40 -73 67 -116 87 l-63 29 -900 2 c-768 2 -908 0 -955 -13z"/>
<path d="M2757 31204 c-56 -90 -387 -694 -387 -708 0 -7 4092 -6 6765 3 l1890
6 57 28 c73 36 139 101 174 174 36 73 45 195 20 271 -36 108 -117 192 -219
230 -51 19 -151 20 -4164 27 l-4111 7 -25 -38z"/>
<path d="M976 27153 c-37 -120 -161 -536 -180 -601 l-15 -53 1087 3 1087 3 66
31 c89 43 142 93 181 172 31 62 33 74 33 167 0 90 -3 106 -28 155 -39 76 -108
143 -181 177 l-61 28 -981 3 -981 2 -27 -87z"/>
<path d="M5855 27156 c-111 -28 -198 -99 -246 -201 -87 -185 -10 -399 176
-491 l60 -29 1115 0 1115 0 62 29 c73 34 153 113 186 183 18 40 22 66 22 153
0 101 -1 108 -34 168 -42 78 -114 144 -189 174 l-57 23 -1080 2 c-836 1 -1091
-1 -1130 -11z"/>
<path d="M136 23203 c-19 -139 -47 -444 -53 -561 l-6 -132 1949 2 1949 3 63
29 c81 38 162 123 192 203 26 69 29 187 6 249 -35 100 -118 187 -215 226 l-56
23 -1912 3 -1911 2 -6 -47z"/>
<path d="M64 19168 c11 -148 57 -632 61 -646 4 -10 287 -12 1432 -10 l1428 3
57 23 c81 33 160 108 200 190 30 60 33 75 33 157 0 77 -4 98 -27 147 -31 67
-96 140 -155 175 -94 55 -30 53 -1592 53 l-1444 0 7 -92z"/>
<path d="M5424 19249 c-190 -36 -328 -234 -294 -420 28 -155 131 -267 278
-304 56 -15 158 -16 925 -13 l862 4 57 23 c81 31 160 106 200 189 30 60 33 75
33 157 0 78 -4 98 -29 152 -34 74 -113 154 -182 185 -26 11 -72 22 -103 24
-119 8 -1708 11 -1747 3z"/>
<path d="M4879 15236 c-109 -41 -181 -105 -226 -201 -24 -52 -28 -72 -28 -155
0 -85 3 -101 29 -154 55 -113 155 -185 283 -206 83 -14 2389 -13 2473 1 122
19 218 90 277 201 25 48 28 63 28 158 0 95 -3 110 -28 162 -36 74 -102 139
-175 175 l-57 28 -1270 2 c-1030 1 -1277 -1 -1306 -11z"/>
<path d="M803 15219 c-18 -5 -33 -12 -33 -14 0 -9 113 -396 156 -535 25 -80
48 -153 50 -163 5 -17 47 -17 822 -15 l817 3 65 31 c83 39 145 102 184 184 26
56 30 76 30 150 1 75 -3 93 -31 152 -39 84 -97 141 -181 181 l-67 32 -890 2
c-537 1 -903 -2 -922 -8z"/>
<path d="M3550 11274 c-113 -31 -208 -118 -250 -231 -31 -82 -26 -205 12 -285
35 -75 104 -142 186 -181 l67 -32 790 -3 c826 -3 856 -2 938 40 49 25 123 92
153 139 96 152 59 363 -83 483 -17 15 -58 39 -90 54 l-58 27 -805 2 c-685 2
-813 0 -860 -13z"/>
<path d="M5036 7259 c13 -22 324 -371 487 -547 l160 -173 256 3 c239 3 259 4
304 25 70 33 149 113 183 186 25 54 29 74 29 152 0 77 -4 98 -27 147 -35 76
-104 148 -175 184 l-58 29 -583 3 c-454 2 -582 0 -576 -9z"/>
</g>
</svg>
